<svg xmlns="http://www.w3.org/2000/svg" viewBox="805 -715 2222 2222">
	<path d="M838 88h135V13h318v-98H973v-59h340v-102H838V88zm801-211l-123-123h-185l240 226V88h135V-20l241-226h-185l-123 123zm802-21v-102h-476v102h250L1961-14V88h486V-14h-260l254-130zm418-102v184c0 13-2 23-7 31s-11 14-19 18-17 8-27 10l-31 3h-29c-27 0-47-1-60-3-36-7-54-27-54-59v-184h-135v199c0 49 18 86 55 109 30 20 71 31 124 35l70 3c57 0 102-5 137-13 74-19 111-63 111-134v-199h-135zM838 558h135v-75h318v-98H973v-59h340V225H838v333zm801-211l-123-123h-185l240 226v108h135V450l241-226h-185l-123 123zm802-21V225h-476v101h250l-254 130v102h486V456h-260l254-130zm418-102v184c0 12-2 22-7 30s-11 14-19 19c-8 4-17 8-27 9l-31 4h-29c-27 0-47-1-60-4-36-7-54-26-54-59V224h-135v198c0 50 18 87 55 110 30 20 71 31 124 35l70 3c57 0 102-5 137-14 74-18 111-63 111-134V224h-135zM838 1026h135v-76h318v-98H973v-58h340V692H838v334zm801-212l-123-122h-185l240 225v109h135V917l241-225h-185l-123 122zm802-20V692h-476v102h250l-254 130v102h486V924h-260l254-130zm418-102v184c0 12-2 22-7 30s-11 14-19 19c-8 4-17 7-27 9s-21 3-31 3l-29 1c-27 0-47-2-60-4-36-7-54-27-54-59V692h-135v198c0 50 18 87 55 110 30 19 71 31 124 35l70 2c57 0 102-4 137-13 74-19 111-63 111-134V692h-135zM838 1498h135v-76h318v-98H973v-58h340v-102H838v334zm801-212l-123-122h-185l240 225v109h135v-109l241-225h-185l-123 122zm802-20v-102h-476v102h250l-254 130v102h486v-102h-260l254-130zm418-102v183c0 13-2 23-7 31s-11 14-19 19c-8 4-17 7-27 9l-31 3-29 1c-27 0-47-2-60-4-36-7-54-27-54-59v-183h-135v198c0 50 18 87 55 110 30 19 71 31 124 34l70 3c57 0 102-4 137-13 74-19 111-63 111-134v-198h-135zM838-381h135v-76h318v-98H973v-58h340v-102H838v334zm801-212l-123-122h-185l240 225v109h135v-109l240-225h-184l-123 122zm802-20v-102h-476v102h250l-254 130v102h486v-102h-260l254-130zm418-102v184c0 12-2 22-7 30s-11 14-19 19c-8 4-17 7-27 9l-31 4h-29c-27 0-47-1-60-4-36-7-54-26-54-59v-183h-135v198c0 50 18 87 55 110 30 20 71 31 124 35a830 830 0 00207-11c74-18 111-63 111-134v-198h-135z" stroke-width="3" fill="none" stroke="#fff" />
</svg>
