<svg xmlns="http://www.w3.org/2000/svg" width="301" height="216" viewBox="400 900 1400 400">
    <path fill="#fff" d="M996 1046c22-7 45-13 69-16 2 0 1-4-3-11a366 366 0 00-40-63 1830 1830 0 00-79 29l-56 24-36 14a4661 4661 0 0056-92c14-11 29-22 46-32l49-29a4052 4052 0 01209-103 6553 6553 0 01106-44l31-10c16-6 32-10 47-13l76-15-1-1-79-38c-14-3-31-2-50 2a476 476 0 00-117 38l-47 21a2113 2113 0 00-309 178 2527 2527 0 00-261 199 1971 1971 0 00-82 82c-14 15-27 31-38 47-12 16-20 31-26 46l25 26 1-1a2624 2624 0 01183-180c36-31 73-60 110-88a6374 6374 0 01-121 206l-15 25-28 46-34 57a4996 4996 0 00-68 118c0 3 2 7 6 15l16 22 16 22 10 14h1l34-83 25-45a5167 5167 0 00162-271l39-23 107-48c22-10 44-18 66-25zm216 26c-5-5-10-10-17-14l-19-10c-7-3-11-4-13-3s-4 5-8 13l-14 32a3375 3375 0 00-56 137l-42 43c-16 16-32 28-46 37l16-37 30-76a604 604 0 0020-41l5-9c2-2 3-5 4-9l-1-2c0-3-3-8-11-12s-13-8-15-10l-16-6c-8-3-13-4-17-3-2 1-6 6-11 16l-17 32-17 33-9 20-10 21a915 915 0 00-28 66c-4 10-5 17-4 20 1 5 4 10 9 15l14 13 17 12c8 6 15 8 20 6 13 0 26-6 39-16 14-10 25-20 34-29a2468 2468 0 00-80 213c1 4 2 9 6 14 3 6 7 12 12 17l15 15c5 4 10 6 14 6 0 3 2 3 3 0 25-85 55-169 88-250s71-163 111-243c1-3-1-7-6-11zm550-96l-15-6c-2-1-6 3-13 10a3999 3999 0 01-47 52 771 771 0 01-55 46l16-37 29-75 10-21 11-21 5-8 3-9-1-2c1-4-3-8-10-13l-16-10-16-6c-8-3-13-4-17-2a680 680 0 00-44 81l-9 19-21 46c-10 23-21 44-33 63-12 20-30 36-53 48l15-37 32-76 9-21 10-21 6-8 4-9-1-2c0-4-3-8-11-12l-17-10-15-6c-8-3-14-4-17-3-2 1-6 6-11 16l-17 32-17 33-10 20-9 21-15 33-4 9-6 7a257 257 0 01-54 52 296 296 0 01-67 34l-66 25c16-16 31-33 45-50a8874 8874 0 0085-106 478 478 0 0151-54l-1-1-4-6-4-5-15-12a94 94 0 00-9-8l-11 2a449 449 0 00-60 20 1046 1046 0 00-70 29l-2 11a142 142 0 000 33l1 11 1 3c8-5 16-8 23-11l23-10 45-15-77 91a6828 6828 0 00-85 103l40 38 25-8 121-50a547 547 0 0061-72l7 8c5 6 9 10 14 13 2 3 7 7 16 13 8 5 14 7 19 5 10 0 19-3 29-9a252 252 0 0054-45l20-23a169 169 0 0034 23c4 2 7 2 10 1 12 0 26-5 40-15a501 501 0 00104-119l7-10v-7z"/>
</svg>
