<svg xmlns="http://www.w3.org/2000/svg" height="216" width="301" viewBox="400 900 1400 400">
    <path fill="#fff" d="M995.8 1045.7c21.9-7.1 44.8-12.3 68.8-15.6 2.3-.1 1.6-3.8-2.1-11.3-3.8-7.4-8.3-15.5-13.7-24.3-5.4-8.7-10.8-17.1-16.4-25-5.5-7.9-8.9-12.5-10-13.6-1.2-1.1-9.7 1.4-25.7 7.5-15.9 6.1-33.7 13.3-53.2 21.5s-38.4 16.1-56.5 23.8c-18.1 7.7-30 12.5-35.6 14.5 9.5-15.6 18.7-31 27.6-46 8.9-15 18.1-30.4 27.6-46 14.2-11.2 29.7-21.9 46.5-32.2 16.8-10.3 33.1-20.1 48.6-29.5 43-23.1 87.6-46.1 133.9-68.8 25.1-11.3 50.1-22.4 75-33.3 24.9-10.9 50-21.6 75.3-32.3 10.5-3.8 20.9-7.7 31.2-11.8 10.4-4.1 20.5-7.6 30.5-10.4 16.7-6 32.6-10.2 47.5-12.5l75.8-15.8-.4-1-79.1-37.9c-14.2-2.5-31.1-1.8-50.5 2.1-19.4 4-39.2 9.3-59.2 16.2-20 6.8-39.3 14.1-57.7 21.9-18.5 7.8-34.1 14.8-46.9 20.9-53.9 25.6-106.7 53.3-158.3 83.4-51.6 30-101.9 61.5-150.9 94.4-46 30.3-90.8 61.9-134.3 94.8-43.5 32.9-85.6 67.7-126.2 104.5-12.5 11.4-26 24.1-40.4 38-14.4 14-28.5 28.6-42.4 43.9-13.9 15.3-26.5 30.9-37.9 46.9-11.4 15.9-19.9 31.4-25.7 46.5l25.3 25.3 1-.4c11.4-14.8 23.8-29.2 37.4-43.2 13.6-14 27.1-27.7 40.5-40.9 33.9-33.6 68.9-65.6 105-96.2 36.1-30.6 72.8-59.8 110.2-87.8-19.4 34.5-39.3 68.9-59.5 103.3-20.3 34.4-40.9 68.8-61.9 103.1-2.1 3-7.1 11.2-15.1 24.3-8 13.2-17.3 28.8-27.9 46.7-10.6 18-21.9 36.9-33.8 56.9-11.9 19.9-22.9 38.6-33 56-10.1 17.4-18.6 31.9-25.5 43.5-7 11.7-10.3 17.8-10.1 18.5 0 2.3 2.2 7 6.7 14.2 4.4 7.2 9.6 14.7 15.5 22.5 5.8 7.8 11.4 15.2 16.5 22.1 5.2 6.9 8.5 11.6 10.2 14.1l1-.4 33.6-83.1 24.6-44.4c28.9-45.5 56.6-90.6 83.1-135.3 26.5-44.7 52.9-90.1 79.3-136.2l39-23.2 107.1-47.7c21.9-9.8 43.7-18.1 65.6-25.2zm216.2 25.8c-4.8-4.8-10.5-9.2-17-13.3-6.5-4.1-13-7.5-19.4-10.2-6.4-2.6-10.7-3.6-12.8-2.8-1.4.5-4 4.9-7.8 13.1s-8.5 18.9-14.2 32c-5.7 13.1-11.6 27.1-17.8 41.9-6.2 14.8-12.1 29-17.6 42.4-5.5 13.4-10.1 25-13.8 34.8-3.7 9.7-6 15.5-6.9 17.4-11.4 12.5-25.2 26.8-41.6 43-16.4 16.2-31.7 28.4-46.1 36.7l15.6-36.5 30.1-76.1c3.7-7.4 7-14.3 9.9-20.7 2.9-6.4 6.2-13.3 9.9-20.7 1.4-2.8 3.2-5.5 5.4-8.2 2.2-2.7 3.5-5.7 4-8.9l-.7-2c.2-3.9-3.6-8-11.4-12.5-7.8-4.4-12.9-7.8-15.2-10-2.8-1.3-8.1-3.4-15.7-6.4-7.7-2.9-13.3-3.8-16.8-2.5-2.1.8-5.8 5.9-11.1 15.5s-11 20.2-17.2 32c-6.1 11.8-11.7 22.9-16.6 33.5-5 10.6-8.1 17.3-9.5 20-1.9 3.7-5.1 10.6-9.9 20.7-4.7 10.1-9.6 21-14.5 32.7-5 11.7-9.3 22.8-13.1 33.4-3.8 10.5-5.2 17.2-4.3 19.9 1 5 4.1 10.2 9.5 15.5 5.4 5.3 9.8 9.6 13.3 13 3.3 2.7 9 6.7 17.2 12.1 8.2 5.5 14.7 7.3 19.6 5.5 13.3-.2 26.6-5.4 39.9-15.5 13.4-10.1 24.7-19.9 33.9-29.4-9.9 23.4-19.4 46.9-28.5 70.4-9.1 23.5-18 47.6-26.8 72.1-.9 1.9-2.7 6.3-5.4 13.4-2.7 7.1-5.4 14.5-8.1 22.4-2.8 7.9-5.4 15.1-7.8 21.7-2.4 6.6-3.6 11-3.6 13.3.5 3.6 2.3 8.3 5.5 14.1 3.2 5.7 7.3 11.3 12.3 16.8 5 5.4 10.1 10.3 15.1 14.6 5 4.3 9.5 6.5 13.5 6.6.9 2.7 2.1 2.7 3.5-.1 25.3-85.5 54.7-169 88.4-250.6s70.4-162.4 110.1-242.4c1-3.2-.7-6.9-5.5-11.7zm549.8-95.5c-8.2-3.2-13.2-5.2-15-6-1.9-.8-6.2 2.6-12.9 10.4-5.6 6.6-12.4 14.6-20.5 24s-16.9 18.7-26.3 27.8c-9.4 9.1-18.9 17.9-28.5 26.3-9.6 8.4-18.4 14.8-26.3 19.2l15.6-36.5 29-75.7c3.7-7.4 7.2-14.4 10.4-20.9 3.2-6.5 6.7-13.5 10.4-20.9 1.4-2.8 3-5.5 4.9-8 1.9-2.6 3-5.5 3.5-8.7l-.7-2c.2-3.9-3.4-8.1-10.9-12.7s-12.7-7.8-15.8-9.8c-2.8-1.3-8.1-3.4-15.8-6.4-7.7-3-13.3-3.8-16.8-2.5-2.1.8-5.8 5.9-11.1 15.5s-10.9 20.1-16.6 31.8c-5.8 11.6-11.1 22.7-16.1 33.3-5 10.6-8.1 17.2-9.5 20-8.3 16.7-15.1 32.2-20.4 46.3-10.2 22.8-21.3 43.8-33.5 63-12.2 19.3-29.9 35-53.1 47.2l15.6-36.5 31.1-76.5c3-7.2 6.1-14 9.4-20.5 3.2-6.5 6.7-13.5 10.4-20.9 1.4-2.8 3.2-5.5 5.4-8.2 2.2-2.7 3.5-5.7 4-8.9l-.7-2c.2-3.9-3.4-8.1-10.9-12.7s-13.1-7.7-16.8-9.4c-2.8-1.3-8.1-3.4-15.7-6.4-7.7-3-13.3-3.8-16.8-2.5-2.1.8-5.8 5.9-11.1 15.5s-11 20.2-17.2 32c-6.1 11.8-11.7 22.9-16.6 33.5-5 10.6-8.1 17.2-9.5 20-1.9 3.7-5.1 10.6-9.9 20.7-4.7 10.1-9.6 21-14.5 32.7-1.3 3.1-2.5 6.1-3.7 9-1.8 1.7-4 4.1-6.5 7.3-9.7 12.7-18.9 23-27.5 31.1-8.6 8.1-17.4 15-26.3 20.9-9 5.9-18.6 11.5-28.9 16.7-10.4 5.3-23.1 11-38.2 17.2l-65.6 24.8c15.8-15.6 30.8-32.3 45-50 14.2-17.7 28.3-35.4 42.2-53 13.9-17.6 28-35.1 42.4-52.5 14.4-17.4 29.9-33.7 46.6-48.9 1.4-2.8 2.8-4.4 4.2-4.9l-.4-1c-1.4-1.8-2.7-3.8-3.9-6.1-1.2-2.2-2.8-4.1-4.9-5.7-3.7-4-8.6-7.9-14.7-11.9-1.2-1.1-2.6-2.3-4.2-3.6-1.6-1.3-3-2.5-4.2-3.6-.2-.7-4-.1-11.2 1.7-7.2 1.8-16.1 4.5-26.7 7.9-10.6 3.4-21.8 7.3-33.7 11.6-11.9 4.3-22.8 8.4-32.8 12.4-10 4-18.5 7.6-25.6 11-7.1 3.3-10.9 5.5-11.3 6.4-.9 1.9-1.7 5.4-2.2 10.5-.6 5.2-.8 10.6-.8 16.3 0 5.7.2 11.2.4 16.5.2 5.3.7 8.9 1.4 10.9l1.1 3.1c7.9-4.4 15.6-8.1 23.2-11.2 7.6-3.1 15-6.4 22.5-9.8l45.4-15.2c-25.3 31.3-50.9 61.9-77 91.9-26.1 30-52.5 60.9-79.1 92.6-.5.9-2.1 2.5-4.9 4.6-2.8 2.1-3.1 4-1 5.5l40.3 38.2 24.1-8.7 121.7-49.6c2.8-1 8.4-6.3 16.9-15.8 8.5-9.5 17.2-20.1 26.1-31.7 6.4-8.3 12.5-16.4 18.4-24.3 1.5 2.6 3.5 5.3 6 8 5 5.5 9.6 9.7 13.9 12.8 2.6 2.9 7.9 7.1 16.1 12.5 8.2 5.5 14.7 7.3 19.6 5.5 9.3-.3 18.9-3.2 28.8-8.7 9.9-5.5 19.3-12.1 28.4-20 9.1-7.8 17.5-16.2 25.4-25.2 7.9-8.9 14.6-16.7 20.2-23.3 2.3 2.2 5.4 4.9 9.3 8.1 3.9 3.2 7.8 6.2 11.9 8.9 4.1 2.7 8.2 4.9 12.3 6.5 4.1 1.6 7.5 1.9 10.3.9 12.6.1 26.1-5.2 40.5-15.7 14.4-10.5 28.1-22.9 41.3-37.2 13.1-14.3 25.1-28.9 36-43.9 10.9-15 19.7-27.5 26.4-37.6l7.3-9.5c-.3-4.4-.3-6.6-.5-7.3z"/>
</svg>
