<svg xmlns="http://www.w3.org/2000/svg" width="100" height="40" viewBox="0 0 1920 800">
	<path fill="#fff" d="M198 291H81v-59H11v172h70v-60h117v60h70V232h-70v59zm185 45h164v-38H383v-16h173v-50H313v172h245v-50H383v-18zm276-104h-70v172h234v-53H659V232zm261 0h-69v172h234v-53H920V232zm421 12c-18-10-43-16-72-17a741 741 0 00-61 0c-30 1-54 7-73 17-27 16-41 41-41 74s14 58 41 74c19 10 43 16 73 17a749 749 0 0061 0c29-1 54-7 72-17 28-16 41-41 41-74s-13-58-41-74zm-38 96l-8 9c-10 6-29 10-57 10a484 484 0 01-38-3c-7-2-14-4-18-7s-7-6-8-9c-2-4-4-8-4-12l-2-10c1-8 2-15 6-22 1-3 4-6 8-9 10-7 29-10 56-10a334 334 0 0138 3c8 2 14 4 19 7l8 9 4 12 1 10c0 8-2 15-5 22z"/>
	<path fill="none" stroke="#fff" stroke-miterlimit="100" stroke-width="10" d="M18 570h51V445H18v125zm244-125l-76 125h62l8-16h76l8 16h62l-76-125h-64zm13 72l19-35 19 35h-38zm245 6l-38-78h-72v125h50v-76l3 7 34 69h46l34-69 3-7v76h50V445h-72l-38 78zm398-61a86 86 0 00-49-17H748v125h121a86 86 0 0049-17 61 61 0 000-91zm-38 65c-4 3-9 5-15 5h-67v-49h67c6 0 11 2 15 5 5 4 8 10 8 20 0 9-3 15-8 19zm186-4l-38-78h-72v125h50v-76l2 7 34 69h47l34-69 2-7v76h51V445h-72l-38 78zm143 47h50V445h-50v125zm70-87h69v87h50v-87h69v-38h-188v38zm393 78c-2-5-3-12-3-23s-6-19-18-24c13-6 20-17 20-31l-1-11c-1-5-3-9-7-13-8-9-22-14-43-14h-134v125h50v-34h58l15 2c4 1 6 4 6 8l1 9 1 9 3 6h58l-6-9zm-53-67l-5 4-11 2h-66v-18h66c8 0 13 1 15 3 2 1 2 3 2 6l-1 3zm207-49l-46 46-46-46h-69l89 84v41h51v-41l90-84h-69z"/>
</svg>
