<svg xmlns="http://www.w3.org/2000/svg" viewBox="0 0 6000 6000">
    <style>
        .st1{fill:#fff}.st2,.st3,.st4{fill-rule:evenodd;clip-rule:evenodd;fill:#009ae1}.st3,.st4{fill:#fff}.st4{fill:#006c9f}.st5{fill:#a7b9be}.st5,.st6,.st7{fill-rule:evenodd;clip-rule:evenodd}.st7{fill:#21b7ff}
    </style>
    <g id="Фигура_42_копия_1_">
        <g id="Фигура_42_копия">
            <path d="M2983.9 5086c-3.5-.9-87.3-23.1-222.3-66.4-124.4-39.9-317-105.9-528.6-193.8-238.4-99-451.8-205.2-634.3-315.5-230.1-139-411.9-285.4-540.6-435.2-100.3-116.7-188.8-240.7-263-368.4-68.8-118.3-126.2-241.3-170.6-365.6-79.5-222.4-117.8-449.9-110.6-657.8 2.6-76.7 12.3-154 28.9-229.8 13.2-60.6 30.8-120.4 52.2-177.8 36.8-98.5 72.5-156 74-158.4l40.9-65.3 43 63.9c.5.7 49.7 73.3 128 156.3 82.9 87.8 167.7 154.9 248.3 196.9 12.6-49.5 29.4-97.9 50.1-144.9-2.2-8-3.1-13.5-3.3-15.6l-1.8-14.4 6.2-13.1c21.1-44.4 60.2-92.5 87.3-123l-412.2-574.4c-2.5.2-5.1.2-7.7.2-21.5 0-39.8-5.3-43.3-6.4l-7.7-2.4-6.6-4.7c-56.2-40.2-92.5-119.3-96.4-128.2l-5-11.2.7-12.2c2.1-33.7 12.6-67.6 31.4-100.8 14.1-25 33-49.6 56-73.3 37.9-39.1 75.2-62.9 77.3-64.2 25.4-19.1 117-82.3 216-82.3 19.5 0 38.5 2.5 56.4 7.3l11.8 3.2 9 8.3c7.2 6.6 70.5 66.3 90.6 132.4l2.3 7.7-.2 8.1c-.2 6.3-1.4 27.9-10.5 50.2l412.2 574.4c37.6-15.9 95.7-37.6 144.5-43.3l14.4-1.7 13.1 6.3c1.1.5 2.7 1.3 4.7 2.5 8.7-66 23.5-121.7 32.3-154.9 2-7.5 4.2-15.8 5.1-20v-3.9l.4-1.4c-2.9-14.4-18.4-52.2-31-83-39.9-97.4-106.7-260.3-130.7-462.1-13.3-111.8-11.9-223.9 3.9-333.1 18.7-128.6 58-256.7 116.9-380.7l67.8-142.9 26.6 155.9c.2 1 19.3 109.4 73.6 231.1 31.3 70.1 68 130.9 109.2 180.6 41.2 49.8 86.8 88.4 136.2 115.4 28.6-28.8 79.7-73.7 157.1-118.1 72.8-41.7 154.7-75.1 243.3-99.1 95.5-25.9 199.3-40.9 309-44.9v-1H3047.8v1.1c109.7 4 213.5 19 309 44.9 88.6 24 170.5 57.4 243.3 99.1 77.4 44.4 128.5 89.2 157.1 118.1 49.3-26.9 95-65.6 136.1-115.4 41.1-49.7 77.9-110.5 109.2-180.6 54.3-121.7 73.4-230.1 73.6-231.2l26.8-155.4 67.7 142.4c43.2 90.9 76 184.4 97.6 277.8 19.4 84 30.2 170 32 255.7 2.2 100.8-7.4 201-29.1 303.6 41.5-20.6 85.1-38.4 130.5-53.2 109.7-35.9 228.8-54.1 354.2-54.1 20.2 0 40.8.5 61.5 1.4 15-17.1 26.9-28.1 27.6-28.7l9-8.3 11.8-3.2c17.9-4.9 36.9-7.3 56.5-7.3 99 0 190.7 63.2 216 82.3 2.1 1.3 39.3 25.2 77.3 64.2 23 23.7 41.8 48.4 56 73.3 18.8 33.2 29.4 67.2 31.4 100.8l.7 12.2-5 11.2c-1.1 2.5-4.8 10.7-10.9 22l21-9.8-9.8 88.5c-.8 6.8-16.5 138.4-112.2 233.6 2 .6 4 1.2 6 1.9 48.3 14.8 124.7 32.4 214.3 32.4 26.2 0 52.5-1.5 78.1-4.5l98.7-11.4-49.7 86c-1.4 2.4-35.2 60.2-104.8 119.1-40.6 34.4-85.5 62.5-133.3 83.6l21 33.6c1.5 2.4 37.2 59.9 74 158.4 21.4 57.3 39 117.1 52.2 177.8 16.5 75.8 26.2 153.1 28.8 229.8 7.1 207.9-31.1 435.4-110.6 657.8-44.4 124.3-101.8 247.3-170.5 365.6-74.2 127.8-162.7 251.7-263 368.4-128.6 149.7-310.1 296.1-539.4 435.1-181.9 110.3-394.5 216.5-631.8 315.5-210.7 87.9-402.4 153.9-526.2 193.8-134.4 43.3-217.7 65.5-221.2 66.4l-12.8 3.4-12.6-3.2zm1826.7-2753.4c19.1 44.4 34.6 90 46.5 136.6 210.3-109.2 374.4-350.6 376.2-353.3l7.7-11.4c-43.9 13.8-89.8 22.2-137.2 24.9-25.2 1.5-50.3 2.2-74.6 2.2-92.5 0-178.8-10.4-262.7-31.6l-41.7 58.2c27.1 30.5 66.2 78.6 87.3 123.1l6.2 13.1-1.8 14.4c-.4 3-1.7 11.4-5.9 23.8z"/>
            <path d="M4125.6 436c175.4 369.4 134.7 692.8 67.9 918.6 112.4-76 296.8-160.3 562.4-160.3 27.1 0 55.1.9 83.9 2.7 19.8-25.4 39.1-43.2 39.1-43.2 14.3-3.9 28.9-5.6 43.4-5.6 89.7 0 176.7 65 189.1 74.7l.1-.2s134.6 85.2 141.5 199.2c0 0-33.1 74.5-79.8 107.9 0 0-13.4 4.1-28.5 4.1-9.8 0-20.2-1.7-28.2-7.5l-23 32.1h9.3c43.8 0 108.6-3.4 146.6-21.2 0 0-19.6 177.7-164.7 252.5 0 0 134.6 70.9 322.5 70.9 26.9 0 55-1.5 83.8-4.8 0 0-120 208-390.1 223.5-24.9 1.4-48.8 2.1-71.7 2.1-115.3 0-207.2-16.9-283.1-39l-85.8 119.6s76.4 76.6 106.6 140.4c0 0-1.5 11.9-10.6 30.8 25.8 56.2 50.5 125.9 65.1 206.7 252.8-98.2 453.4-396.4 453.4-396.4s136.4 218 147.5 541.2c12.7 371.2-122.6 881-532.1 1357.5-548.8 638.7-1893.5 995.1-1893.5 995.1S1644.9 4681.2 1096 4042.5C686.5 3565.9 551.1 3056.1 563.8 2685c11.1-323.2 147.5-541.2 147.5-541.2S912 2442 1164.8 2540.2c15.3-84.2 41.4-156.2 68.3-213.6-6.4-15-7.5-24.1-7.5-24.1 30.2-63.8 106.6-140.4 106.6-140.4L876 1526.4c-8 5.7-18.4 7.5-28.2 7.5-15.1 0-28.5-4.1-28.5-4.1-46.7-33.4-79.8-107.9-79.8-107.9 7-114 141.5-199.2 141.5-199.2s0 .1.1.1c12.5-9.7 99.4-74.7 189.1-74.7 14.5 0 29 1.7 43.4 5.6 0 0 59.9 55.2 76.6 110.1 0 0-1 38.1-21.3 52.6l456.2 635.7s97-47.8 167.1-56c0 0 37.7 18.1 69.8 82.2-5.7-144.2 44-280.6 44-296.1 20.9-69.2-360-583.6-45.3-1246.2 0 0 76.7 449.1 380.1 580.1 0 0 204.4-271.3 747.6-274.5h9.6c543.1 3.2 747.5 274.5 747.5 274.5 303.4-131 380.1-580.1 380.1-580.1m241.7 1516.3l11-15.3c-17.3-1.6-34.9-2.8-52.7-3.3 24.8 10.3 41.7 18.6 41.7 18.6m-243.8 40.8c7.2-16.4 14.8-30.2 22.4-41.8-7.1 1.8-14.2 3.9-21.2 6 0 11.9-.4 23.8-1.2 35.8M3979.7 2413c136.4-182.9 221.9-295.1 221.9-295.1-7.2-10.9-65.8-37.3-83.9-70.9-17 127.2-36.4 170.2-36.4 170.2s-83.9 121.6-101.6 195.8M2003 2399.7c-23.4-74.5-97.9-182.6-97.9-182.6s-18.6-41.2-35.3-162.5c-22.1 29.8-72.3 53.1-78.9 63.1 0 0 81.4 106.9 212.1 282m-96.1-2294.4l-136.5 287.8c-31.5 66.4-57.9 134.4-78.3 202.2-19.1 63.4-33.5 128.2-42.9 192.7-8.6 59.5-13.2 120.2-13.5 180.5-.3 54.7 2.9 110.5 9.4 165.7 10.9 92.3 30.9 183.5 61.1 279 25.1 79.5 52.8 146.9 72.9 196.2 9.5 23.3 21 51.2 26 66.5-.8 3.2-1.8 6.7-2.6 9.9-6.5 24.3-17 64.1-25.7 111.5-33.4 4.3-72.8 14.9-117.2 31.6l-374.9-522.4c4.5-19.3 5.3-35.4 5.4-40l.4-16.2-4.7-15.5c-10.8-35.5-32-72.6-63.2-110.3-20.8-25.2-39.4-42.5-41.4-44.3l-18-16.5-23.6-6.4c-22.2-6-45.6-9.1-69.5-9.1-51.9 0-106.7 14-163.1 41.7l-.9-1.3-14.7 9.2c-30.2 16.1-53.4 32.2-65.9 41.5-9.4 6.1-46.5 31.3-84.6 70.5-26 26.8-47.4 54.9-63.6 83.5-22.6 39.9-35.3 81.1-37.8 122.4l-1.5 24.4 9.9 22.3c1.1 2.5 11.5 25.7 28.7 53.4 25.7 41.6 54.1 73.6 84.3 95.2l13.2 9.4 15.5 4.8c5 1.6 20.1 5.8 39.6 7.7l374.9 522.4c-31.1 38.1-54.3 73.1-69 104.3l-12.4 26.2 3.5 28.8c.2 1.3.4 2.8.7 4.6-10.3 24.5-19.6 49.3-27.9 74.4-59.9-39-121.8-92-183-157-75.3-79.9-121.3-147.9-121.7-148.6l-86-127.8-81.7 130.6c-6.2 9.8-150.8 244.8-162.7 590.8-3.5 102.9 3.7 210.9 21.4 321 19 117.9 50 237.5 92.1 355.3 45.5 127.1 104.1 252.9 174.4 373.9 75.8 130.4 166.1 256.9 268.3 375.9 69.6 81 154.7 161.5 253 239.4 88.1 69.8 188.9 139.1 299.6 206 184.7 111.6 400.3 218.9 641 318.9 213.2 88.6 407.3 155.1 532.5 195.3 136.2 43.7 221.3 66.2 224.8 67.1l25.6 6.7 25.6-6.8c3.5-.9 88.2-23.5 223.8-67.2 124.7-40.2 317.8-106.7 530.1-195.3 239.6-100 454.4-207.3 638.5-318.9 110.3-66.9 210.9-136.2 298.8-206 98.1-77.8 183-158.3 252.6-239.3 102.2-119 192.5-245.5 268.3-375.9 70.3-121 129-246.8 174.4-373.9 42.1-117.9 73.1-237.4 92.1-355.3 17.7-110.1 24.9-218.1 21.4-321-10.5-304.3-123.6-522.7-154.9-577.6 33.3-18.7 64.9-40.7 94.4-65.7 74.9-63.4 111.8-125.4 115.8-132.3l99.3-172.1-197.4 22.8c-23.7 2.7-48.1 4.1-72.4 4.1-49.5 0-94.8-5.8-132.6-13.3 14.7-22.4 27.7-46.6 38.8-72.4 28.1-65.5 34.8-120.5 35.4-126.6l19.5-177-20.1 9.4c-5.9-29.5-17.1-58.7-33.2-87.3-16.2-28.7-37.6-56.8-63.6-83.5-38.1-39.2-75.2-64.4-84.6-70.5-12.3-9.1-34.7-24.8-64.1-40.6l-17.7-11.2-1.1 1.6c-55.9-27.2-110.2-41-161.7-41-23.9 0-47.3 3-69.5 9.1l-23.6 6.4-18 16.5c-1.2 1.1-6.8 6.3-14.8 14.6-13.6-.4-27-.6-40.4-.6-130.7 0-255.1 19-369.8 56.6-16.7 5.5-33.2 11.3-49.4 17.5 10.6-74.1 15.2-148.5 13.6-221.5-1.9-89.1-13.2-178.5-33.3-265.8-22.4-97-56.4-193.9-101.1-288l-136.5-287.5-52.2 313.6v-.2c-.2 1-18.7 105.2-70.9 221.4-29.5 65.6-63.7 122.1-101.9 168-28.1 33.8-58.3 61.8-90.3 83.7-32.3-28.7-78-63.9-138.8-98.8-76.5-43.9-162.3-78.9-255.1-104-85-23-176.2-37.8-272.1-44.2v-3.5h-209.6v3.6c-95.9 6.3-187 21.1-272.1 44.2-92.8 25.1-178.6 60.1-255.1 104-60.8 34.9-106.5 70-138.8 98.8-32-21.9-62.2-49.9-90.3-83.7-38.2-45.9-72.4-102.5-101.9-168-52.2-116.2-70.7-220.3-70.9-221.4v.2l-52.3-314zm2956.6 2224c1.5-6.5 2.3-11.5 2.7-14.6l3.5-28.8-12.4-26.2c-14.6-30.8-37.5-65.4-68.1-103.1 77 16.8 156.1 24.9 240.1 24.9 25.3 0 51.4-.8 77.5-2.3 5.1-.3 10.2-.7 15.3-1.1-15.8 18.8-34 39.5-54.2 60.8-60.4 63.9-121.5 116-180.6 154.5-7.3-21.5-15.2-42.9-23.8-64.1z" class="st1"/>
        </g>
    </g>
    <g id="Группа_1_копия_2_1_">
        <path id="Фигура_80" d="M1050 1204s-72.6 19.5-130 65c-62.9 49.8-111 126-111 126l67 75 69-45 67-60 85-37 22-6s-50.8-116-69-118z" class="st2"/>
        <path id="Фигура_82" d="M1730 1959l-300 162-157 162 75 116 262-203 189-109 26-53s-22-89.2-95-75z" class="st2"/>
        <path id="Фигура_81" d="M1107 1332c-107.5-44.6-217 142-217 142l497 673 63-32 152-126-495-657z" class="st3"/>
        <path id="Фигура_49" d="M1007.4 1313.7c-59.8 38.1-99.6 123.1-99.6 123.1l267-165.6-64.3-68.8-135.8 29c31 13.4 92.5 44.2 32.7 82.3z" class="st4"/>
        <path id="Фигура_51" d="M1739.6 1927.2l-32.6 66.1c30.8 74.8-111.7 186.9-99.6 181.9 54.9-22.5 242.6-146.2 242.6-146.2l-110.4-101.8z" class="st4"/>
        <path id="Фигура_50" d="M1335 2252.1l-53.4 38 76 105.9 50.7-67.9s-87.7 8.3-73.3-76z" class="st4"/>
        <path id="Фигура_79" d="M2821 3618c-468.2-676-1080-1474-1080-1474l-139 25 14 16-137 133s1425.7 1942.4 1576 2225c0 0 60.6 94.7 122 82 0 0 179.4 7.7 211-103 0 0-236-426.1-567-904z" class="st3"/>
        <path id="Фигура_52" d="M3296 4302c-140.6-220.1-300.2-455.2-483-681-614.8-759.3-1065-1487.9-1065-1487.9s-121.2 28.5-161.4 96.4c0 0 1002.8 1196.3 1622.5 2202.9 64.5 34.2 195.2 59.2 195.2 59.2s20.3-38.3-108.3-189.6z" class="st5"/>
        <path id="Фигура_48" d="M930.5 1404.2l-56.2 113.1 502.3 680.5 83.3-85.1z" class="st5"/>
        <path id="Фигура_44_копия" d="M3388.8 4333.7c-182.9-277-403-572.5-613-870.3-501.3-710.9-984.9-1345.6-984.9-1345.6 9.5-14.3 108.1-55.7 86.1-104.7-33.9-92.4-84.7-116.8-84.7-116.8-70.1 8.2-167.1 56-167.1 56L1169 1316.5c20.3-14.6 21.3-52.6 21.3-52.6-16.7-55-76.6-110.1-76.6-110.1-103.1-28-218 57.8-232.5 69.1-.1-.1-.1-.2-.1-.2s-134.6 85.2-141.5 199.2c0 0 33.1 74.5 79.8 107.9 0 0 36.4 11.2 56.7-3.3l456.2 635.7s-76.4 76.6-106.6 140.4c0 0 7 57.7 87.2 120.6 27.1 21.3 66 2.6 123.1-51 0 0 919 1231 1587.5 2243.8 50.9 56.5 125.2 41.4 172.6 1.6-15.2-2.8-29.9-7.7-43.2-15.2C2823.5 4098 2307.3 3359 1511.4 2322.9c0 0 55.7-64.1 93.6-91.3 0 0 36.2-24.8 103.7-50.3 0 0 1330.5 1799.8 1644 2327.8 22 34.4 1.2 67.8-36.7 88.8 152.9 108.6 170.9-166.2 72.8-264.2zM891.2 1455.2s-18.5 6.1-55-49.7c0 0 .2-48.3 93.3-115.2 93-66.7 138.8-51.3 138.8-51.3 41.2 52.5 29.5 68 29.5 68-41.9-.8-115.8 56.6-115.8 56.6s-78.1 51.6-90.8 91.6zm38.2 19.6s11.8-44.3 69.6-86.1c.1-.1.3-.2.4-.3.1-.1.3-.2.4-.3 58.1-41.4 103.9-38.4 103.9-38.4l465.3 648.4-86.7 62.2-87.5 62.8-465.4-648.3zm641 712.2s-151.4 103.9-189.3 164.2c0 0-33.2 16.2-70.2-45.1 0 0 20.7-66.4 203.3-197.4 182.2-130.8 251.7-129 251.7-129 46.2 54.6 20.3 80.9 20.3 80.9-69.2 16.5-215.8 126.4-215.8 126.4z"/>
        <path id="Фигура_44" d="M1528.6 1923.5L1397 1977l82.8-114.8-21.3-24.6-125.7 51.6 85.3-112.9-13.9-17.8-113.8 34.6 67.6-103.9-26.8-37.4-108.2 47.5 62.6-107.6-25.1-35-104.9 53.6 67.1-109.7-9.7-13.5-119.3 47 73.1-111.4-17.7-24.7-111.6 42.7 33.6-97.6-34.8 15.3-72.5 193 25.1 35 25.2-75.9 92-56.4-61 98-20 96.4 28.8 33.5 19.6-93.6 74.3-29.2-48.4 68.5-24 77.5 28.3 32.7 21.3-74.4 107.5-51.8-66.7 106.9-16.2 81.6 38 63.1 9.4-99.5 113.3-62.1-76.4 115.1-8.9 96.8 27.2 39.6 3.9-105.3 96.9-43-66.4 83.8-4.5 104.5 20.7 40.6 20.7-92.1 90.6-51.7-65 84-1.7 108.5 25.1 35 9.5-96 105.6-40.8-73.1 86.2-3 61.2 24.3-28.2L1543 1947z" class="st6"/>
    </g>
    <g id="Группа_1_копия_3_1_">
        <path id="Фигура_80_1_" d="M5072.5 1268.8c-57.4-45.5-130-65-130-65-18.2 2-69 118-69 118l22 6 85 37 67 60 69 45 67-75s-48.1-76.2-111-126z" class="st2"/>
        <path id="Фигура_82_1_" d="M4562.5 2120.8l-300-162c-73-14.2-95 75-95 75l26 53 189 109 262 203 75-116-157-162z" class="st2"/>
        <path id="Фигура_81_1_" d="M4885.5 1331.8l-495 657 152 126 63 32 497-673s-109.5-186.6-217-142z" class="st3"/>
        <path id="Фигура_49_1_" d="M4985.1 1313.5c-59.8-38.1 1.7-69 32.6-82.3l-135.8-29-64.3 68.8 267 165.6c.1 0-39.7-85-99.5-123.1z" class="st4"/>
        <path id="Фигура_51_1_" d="M4285.6 1993.1L4253 1927l-110.4 101.8s187.6 123.6 242.6 146.2c12 5-130.4-107.1-99.6-181.9z" class="st4"/>
        <path id="Фигура_50_1_" d="M4657.5 2251.9c14.4 84.3-73.3 76-73.3 76l50.7 67.9 76-105.9-53.4-38z" class="st4"/>
        <path id="Фигура_79_1_" d="M4376.6 2184.8l14-16-139-25s-611.7 798-1079.9 1474.1c-331 477.9-567 904-567 904 31.6 110.7 211 103 211 103 61.4 12.7 122-82 122-82 150.3-282.6 1575.9-2225.1 1575.9-2225.1l-137-133z" class="st3"/>
        <path id="Фигура_52_1_" d="M4244.5 2132.9s-450.2 728.6-1064.9 1488c-182.8 225.8-342.4 460.9-483 681-128.6 151.3-108.2 189.5-108.2 189.5s130.6-25 195.2-59.2c619.6-1006.6 1622.4-2203 1622.4-2203-40.3-67.8-161.5-96.3-161.5-96.3z" class="st5"/>
        <path id="Фигура_48_1_" d="M5062.1 1404l-529.5 708.6 83.3 85 502.3-680.5z" class="st5"/>
        <path id="Фигура_44_копия_1_" d="M5111.5 1222.5s0 .1-.1.2c-14.5-11.3-129.4-97.1-232.5-69.1 0 0-59.9 55.2-76.6 110.1 0 0 1 38.1 21.3 52.6L4367.4 1952s-97-47.8-167.1-56c0 0-50.8 24.4-84.7 116.8-22 49.1 76.6 90.4 86.1 104.7 0 0-483.6 634.7-984.9 1345.7-210 297.8-430 593.4-613 870.4-98.1 98.1-80.1 372.9 72.9 264.2-37.9-21.1-58.8-54.5-36.7-88.8 313.4-528 1643.9-2327.9 1643.9-2327.9 67.5 25.5 103.7 50.3 103.7 50.3 37.9 27.2 93.6 91.3 93.6 91.3-795.8 1036.2-1312 1775.2-1641.4 2279.6-13.3 7.5-28 12.5-43.2 15.2 47.5 39.8 121.7 54.9 172.6-1.6C3637.7 3603 4556.6 2372 4556.6 2372c57.1 53.6 96 72.3 123.1 51 80.2-62.9 87.2-120.6 87.2-120.6-30.2-63.8-106.6-140.4-106.6-140.4l456.2-635.7c20.3 14.6 56.7 3.3 56.7 3.3 46.7-33.4 79.8-107.9 79.8-107.9-7-114.1-141.5-199.2-141.5-199.2zM4681.6 2306c-37 61.3-70.2 45.1-70.2 45.1-37.9-60.3-189.3-164.2-189.3-164.2s-146.6-109.9-215.8-126.4c0 0-25.9-26.2 20.3-80.9 0 0 69.4-1.8 251.7 129 182.7 130.9 203.3 197.4 203.3 197.4zm-83.8-182.9l-87.5-62.8-86.7-62.2 465.3-648.5s45.7-3 103.8 38.4c.1.1.3.2.4.3.1.1.3.2.4.3 57.8 41.8 69.6 86.1 69.6 86.1l-465.3 648.4zm503.5-668.1c-12.7-40-90.9-91.7-90.9-91.7s-73.8-57.4-115.8-56.6c0 0-11.7-15.5 29.5-68 0 0 45.8-15.4 138.7 51.4 93.2 66.8 93.3 115.2 93.3 115.2-36.3 55.8-54.8 49.7-54.8 49.7z"/>
        <path id="Фигура_44_1_" d="M4956.3 1358.2l-34.8-15.3 33.5 97.6-111.5-42.7-17.7 24.6 73 111.5-119.3-47-9.7 13.5 67.2 109.7-105-53.6-25.1 35 62.6 107.6-108.2-47.5-26.8 37.4 67.6 104-113.7-34.7-14 17.8 85.3 113-125.7-51.6-21.2 24.5 82.7 114.8-131.6-53.4-14.4 23.4 107.3 152.9 24.3 28.3-3.1-61.3-73.1-86.2 105.7 40.9 9.4 96 25.2-35.1-1.7-108.5-65.1-84 90.6 51.8 20.8 92 20.7-40.6-4.6-104.5-66.4-83.8 96.9 43 4 105.3 27.2-39.6-8.9-96.7-76.5-115.2 113.3 62.1 9.4 99.5 38-63.1-16.2-81.6-66.7-106.9 107.5 51.8 21.3 74.4 28.3-32.7-23.9-77.5-48.5-68.5 74.3 29.2 19.6 93.6 28.9-33.5-20.1-96.4-61-98 92.1 56.4 25.1 75.9 25.1-35z" class="st6"/>
    </g>
    <g id="Группа_2_1_">
        <path id="Фигура_78_копия" d="M5040.1 2975l-447 135-63-196-726 255-925 1003s442.6 37.6 464 38c21.4.4 1465.6-384.7 1478.1-407 12.4-22.3 340.3-475.9 218.9-828z" class="st3"/>
        <path id="Фигура_78" d="M2178 3169l-726-255-63 196-447-135c-121.4 352.1 206.5 805.7 219 828 12.5 22.3 1456.6 407.4 1478 407 21.4-.4 464-38 464-38l-925-1003z" class="st3"/>
        <path id="Фигура_76" d="M5186 1889c-10.9-7-164-97-164-97l110-129-16-56-1075 5 18 275 390 2s708.4 267.7 884 56c0 0-136.1-49-147-56z" class="st2"/>
        <path id="Фигура_54" d="M5103.6 1665.8l-818.2-71.5-261.6-18.1 44.3 104.1s183.5-27.4 332.2 62.4c148.6 89.8 286 97.9 458 101.4 0 0-52.5-30.9-86.9-67 .1 0 216 14.6 332.2-111.3z" class="st4"/>
        <path id="Фигура_60" d="M1376.4 3092l-223.6-2.7c221.3 752.3 1006.5 867.8 1006.5 867.8-624.6-229.8-782.9-865.1-782.9-865.1z" class="st5"/>
        <path id="Фигура_72" d="M1865 766c-186.5 660.8 146 795 146 795l73-345-219-450z" class="st2"/>
        <path id="Фигура_73" d="M4124 750l-359 409 201 449s332.2-472.7 158-858z" class="st2"/>
        <path id="Фигура_74" d="M4809 1404l149-155c-490.7-69.8-914.9 286.6-892 295 115.7 42.6 908 31 908 31l-165-171z" class="st2"/>
        <path id="Фигура_75" d="M4700 1471l33-23c-204.3-48.1-417 56-417 56l-158 40s165.6 41.7 224 39c58.4-2.7 533-37 533-37-85.6-77.9-215-75-215-75z" class="st4"/>
        <path id="Фигура_62" d="M1869 791.7s53.6 154.7 120.8 271.5c67 105.1 32.5 188.6 21.7 229.4-18 69.3-25.5 159.8 10.4 253.8l267-386.4S2013.1 740.8 1869 791.7z" class="st4"/>
        <path id="Фигура_62_копия" d="M4132.4 791.4c-144.1-50.9-419.9 368.4-419.9 368.4l266.9 386.5c35.9-94 28.4-184.6 10.4-253.9-10.8-40.9-45.3-124.3 21.7-229.5 67.3-116.7 120.9-271.5 120.9-271.5z" class="st4"/>
        <path id="Фигура_67" d="M2868 2996l-712-378c-59.5 443 481 1083 481 1083l209 5s128.5-175.9 135-386c3.5-112.1-113-324-113-324z" class="st3"/>
        <path id="Фигура_47" d="M3889.1 2604.3c-4.6 10.5-418.5 116.2-524.9 131.2-106.4 15-116.8-10-116.8-10l-415.4 60.6-496.9-114c30.2 164.5 406.2 206.3 515 382.8 69.5 112.7 24.3 306.2 0 450.7-35.9 213.3-164.7 144.8-164.7 144.8l-12.7 5.4s427.9 372 440.8 349.3c12.9-22.7 93.6-126.7 93.2-154.7-.3-28 225.9-564.9 230.8-580.1 4.9-15.2 494.2-694.1 494.2-694.1s-38 17.6-42.6 28.1z" class="st5"/>
        <path id="Фигура_77" d="M1957 2822l-554-270-143 257-468-211c-206.4 143.3 121 532 121 532l5-175 328 117 165-5v-112l43-27 654 207-151-313z" class="st5"/>
        <path id="Фигура_77_копия" d="M5238.7 2598l-467.9 211-143-257-553.8 270-151 313 653.9-207 43 27v112l165 5 327.9-117 5 175s327.3-388.7 120.9-532z" class="st5"/>
        <path id="Фигура_68" d="M2630 2546l-305-100c-14.3 178.6 249.8 297.9 264 298 14.2.1 262-100 262-100l-221-98z" class="st3"/>
        <path id="Фигура_69" d="M3151 2627c100 197.7 383.7 81.2 398 79 14.3-2.2 133-262 133-262l-531 183z" class="st3"/>
        <path id="Фигура_59" d="M1883 2582s-79.5 90.6-195 47c-192.5-72.6-443-258-443-258s-44.6 528 148.6 635c0 0-107-192.3 4.5-355.6 0 0 241.7 272.2 571.1 309.5L1883 2582z" class="st3"/>
        <path id="Фигура_58" d="M798.9 2637.7s213.1 244 450.7 261.5l-41.6-281.4L725.6 2331s-75.9 526.3 124 700.4c0 0-123.6-221.6-50.7-393.7z" class="st3"/>
        <path id="Фигура_61" d="M2050.7 3082.1l-281.5-8.1-8.1 25.3s213.3 668.8 1100.6 1029.8l17.2-126.7-828.2-920.3z" class="st5"/>
        <path id="Фигура_61_копия" d="M4232.9 3074l-281.5 8.1-828.4 920.2 17.2 126.7C4027.7 3768 4241 3099.3 4241 3099.3l-8.1-25.3z" class="st5"/>
        <path id="Фигура_60_копия" d="M4625.9 3092s-158.3 635.3-783 865.1c0 0 785.3-115.5 1006.6-867.8l-223.6 2.7z" class="st5"/>
        <path id="Фигура_59_копия" d="M4686 2378s-72.1 127.5-246 212c-164.4 79.9-332-7-332-7l-75 376.9c329.4-37.3 571.2-309.5 571.2-309.5 111.5 163.4 4.5 355.6 4.5 355.6 193.2-107 77.3-628 77.3-628z" class="st3"/>
        <path id="Фигура_58_копия" d="M5276.8 2331l-482.5 286.9-41.6 281.4c237.6-17.5 450.8-261.5 450.8-261.5 72.9 172.1-50.7 393.7-50.7 393.7 199.9-174.2 124-700.5 124-700.5z" class="st3"/>
        <path id="Фигура_71" d="M2935 847s-277 6.8-461 133c-202.2 138.7-313 398-313 398l-49 276s209.1 164.5 469 220c313.1 66.9 687 27 687 27l231-823s-361.3-271.5-564-231z" class="st3"/>
        <path id="Фигура_46" d="M3289.9 824.2l-426.3 54.3c177.1 47 199.7 226.3 190.1 428-11.3 235.7-307.7 377.4-307.7 377.4 207.2 12.7 285.1-32.6 285.1-32.6-266.2 206.7-778.3 32.6-778.3 32.6l49.8 280.5 1346.7-121.3 2.7-514-362.1-504.9z" class="st5"/>
        <path id="Фигура_70" d="M2108 1721s-214.2 362.5 13 512c0 0 412.7 160.7 839 169 449.1 8.7 913-135 913-135l116-536s-1117 470.2-1881-10z" class="st2"/>
        <path id="Фигура_57" d="M2184.9 1721.9l-139.4-10s-77.8 489.6 321.3 548.4c0 .1-197.1-144.5-181.9-538.4z" class="st4"/>
        <path id="Фигура_55" d="M3873.7 1749.1s-117.5 531.1-496.9 600c0 0 599.4-71.2 626.3-220.8 26.9-149.6-15.7-486.3-129.4-379.2z" class="st4"/>
        <path id="Фигура_56" d="M3218.4 1823.5c-284.6 574.2-810.9 634.2-810.9 634.2 802.1-57 1111.4-651.6 1111.4-651.6l-300.5 17.4z" class="st7"/>
        <path id="Фигура_56_копия" d="M2670.1 2411.7c-8.2.6-16.5 1.2-24.9 1.7.1 0 8.9-.2 24.9-1.7zm840.1-556.5c-292.2 475.8-731.7 546.2-840.1 556.5 624.3-49.2 918.7-561.3 918.7-561.3l-78.6 4.8z" class="st7"/>
        <path id="Фигура_66" d="M4121 2019.8c2.5-20.9 3.6-41.8 3.7-62.5 162-50.2 368.8-12.3 465.7 28.1 110 45.9 260.5 108.5 510.5 94.1C5371 2064 5491 1856 5491 1856c-230.3 26.6-406.4-66.1-406.4-66.1 145.1-74.8 164.7-252.5 164.7-252.5-61.5 28.8-192.8 19.9-192.8 19.9-81.4-146.8-165.6-166.5-165.6-166.5 61.7-63.9 211.8-152.9 211.8-152.9-458.2-110.3-753.2 11.1-909.2 116.7 66.8-225.8 107.5-549.1-67.9-918.6 0 0-76.6 449.1-380.1 580.1 0 0-204.4-271.3-747.4-274.5h-9.6c-543.2 3.2-747.6 274.5-747.6 274.5-303.5-131-380.1-580.1-380.1-580.1-314.7 662.7 66.1 1177 45.3 1246.2 0 16.9-59.6 179.1-40.7 337.6 17.7 148.3 39.8 197.3 39.8 197.3s115.1 167 104.1 229c-10.3 58.1-121.3 73.3-121.3 73.3s-114.4-.3-162.3 67.9c-238.2-91.6-397.9-415.3-398-414.6 0 0-121.4 138.9-162.9 367.4-252.8-98.1-453.4-396.3-453.4-396.3S575 2361.8 563.9 2685c-12.7 371.2 122.6 881 532.2 1357.5 548.9 638.7 1900.7 995.1 1900.7 995.1s1344.8-356.4 1893.5-995.1c409.5-476.6 544.8-986.4 532.1-1357.5-11.1-323.2-147.5-541.2-147.5-541.2s-200.6 298.2-453.4 396.4c-41.5-228.6-162.9-367.4-162.9-367.4-.1-.7-159.7 323-397.9 414.6-47.9-68.2-162.2-67.9-162.2-67.9s-110.9-15.2-121.3-73.3c-11-61.9 104.1-229 104.1-229s22.1-49.1 39.7-197.4zm745.5-726.7s-95 41.8-158.4 122.2c0 0 117.9 30.9 194.3 120.7-141.1-74.1-260.3-44.8-260.3-44.8l32-23.4c5-1.3 9.8-2.2 14.1-2.8 0 0-13.1-1.3-39.6 1.2-159.9.2-334.2 61.2-334.2 61.2-56.5-2.2-108.8 5-150.9 14.4 69.1-52 347.4-243.4 703-248.7zM3897 2011c51-118.6 19-243 19-243 87.9 141.3-40 365-40 365-81.6 65.1-202 108-202 108 49.3-19.4 176.5-121.8 223-230zm-256 455s-67.3 344.3-440.8 193.4c0 0 112.7-.6 200.9-99.4 0 0 49.8-25.2 109.5-47 59.4-21.6 130.4-47 130.4-47zm-645-130.4v-.2c-32.7.8-556.6 9.3-840.2-204.5 0 0-97.5-217.3-33.3-351 0 0 311.6 247.1 875.9 247.1 286.2-8.2 493.6-56.5 637.8-109.7-154 375.7-640.2 418.3-640.2 418.3zm-205.7 324c-373.5 151-440.8-193.7-440.8-193.7s71.1 25.4 130.3 47.1c59.8 21.8 109.5 47.1 109.5 47.1 88.2 99 201 99.5 201 99.5zM2590 976c208.1-89.6 440.5-81.1 509-70 136.3 22.1 204.8 108.1 209 267 5.3 202.9-180 314-180 314 168.3-31.9 208-150 208-150-78.2 579-491 522-491 522-580.4-82.9-671-307-671-307 28-301.9 209.9-487.2 416-576zm-707.1-170.7c103.8 235.7 291.9 346 291.9 346-144.5 135.4-162.6 371.6-162.6 371.6-248.2-446.6-129.3-717.6-129.3-717.6zM1379 2507.6s134.4 210.7 455.3 335.8c0 0 2.6-96.2 39.8-135.8 0 0 26.3 256.2 100.5 362.9 0 0-401.7-60.5-582.9-306.8 0 0-47.3 90.3 2.7 235.3 0 0-159.7-208-15.4-491.4zM852.2 3028s-194.5-267.6-92.3-553.9c0 0 211.1 255.9 439.9 294.1 0 0-7.7 155.6 67.9 270.6 0 0-257.6-68.4-416.4-267.9 0 .1-51.2 107.5.9 257.1zm114.1-21.7s159.6 126.1 345.8 147.5c0 0 202.8 596.4 843.6 800-.1 0-925.5 56.3-1189.4-947.5zm497.8-42.6s210 156.9 547.6 206.3c0 0 329.4 698.8 840 950.3-.1.1-1082.9-193.3-1387.6-1156.6zM2995 3425.2l.7 431.8s-1.8-1.1-5.3-3.1v3.1l-.3-3.3c-46.5-27.8-372.6-227.5-555.9-481.8-244.9-339.6-243.9-726.7-243.9-726.7 267.6 183.1 513.8 247 661.4 269.1 17.2-53.1 75.4-116.2 144.1-116.2 68.5 0 125.8 62.6 143.1 115.5 148.1-22.7 392-87.1 657-268.5 0 0-157.2 147.2-361.1 253.4-66.3 34.6-138 64.5-203.9 89-149.3 57.3-211.8 248.9-235.9 437.7zm1807.5-657c228.9-38.2 440-294.1 440-294.1 102.2 286.2-92.3 553.9-92.3 553.9 52.1-149.6.9-257 .9-257-158.8 199.5-416.4 267.9-416.4 267.9 75.6-115.1 67.8-270.7 67.8-270.7zm233.6 238.1c-264 1003.8-1189.5 947.6-1189.5 947.6 640.8-203.7 843.7-800 843.7-800 186.2-21.5 345.8-147.6 345.8-147.6zm-908-298.7c37.2 39.5 39.8 135.8 39.8 135.8 321-125.1 455.4-335.8 455.4-335.8 144.3 283.4-15.4 491.4-15.4 491.4 50-145 2.7-235.3 2.7-235.3-181.2 246.3-583 306.8-583 306.8 74.2-106.7 100.5-362.9 100.5-362.9zm-137.6 462.5c337.7-49.4 547.7-206.3 547.7-206.3-304.7 963.2-1387.8 1156.6-1387.8 1156.6 510.6-251.5 840.1-950.3 840.1-950.3zm-163.9-2019s188.1-110.4 291.9-346.1c0 0 118.8 271.1-129.3 717.9 0 0-18.1-236.3-162.6-371.8zm602.7 544.7c195.9 104.5 300.1 167 463.4 152 0 0-147.4-8.6-319.5-141.2 0 0 199.4 84.2 519.5-30.8 0 0-80.2 91-173.8 102.3 0 0 130.9 166.3 354.8 152.9 0 0-354.4 112-598.2-18.1-243.9-130.1-521.5-73.8-593.7-60.6l-9.1-215.4c.1.1 160.7-45.6 356.6 58.9z"/>
        <path id="Эллипс_1" d="M3106.2 4560.2l85.9-202.2-201.8 87.5L2799 4364l81.6 191.2-87.6 201.7 202.3-85.8 197.9 87-87-197.9zm-76.1 34.8c-21 21-55.1 21-76.1 0-21-21-21-55.1 0-76.1 21-21 55.1-21 76.1 0 21 21 21 55.1 0 76.1z" class="st1"/>
        <path id="Эллипс_1_копия" d="M2582.9 4454.5l39.7-93.3-93.2 40.4-88.3-37.7 37.7 88.3-40.4 93.1 93.4-39.6 91.4 40.2-40.3-91.4zm-35.2 16.1c-9.7 9.7-25.4 9.7-35.1 0-9.7-9.7-9.7-25.4 0-35.1s25.4-9.7 35.1 0c9.7 9.7 9.7 25.4 0 35.1z" class="st1"/>
        <path id="Эллипс_1_копия_2" d="M3494.1 4454.5l39.7-93.3-93.2 40.4-88.3-37.7 37.7 88.3-40.4 93.1 93.4-39.6 91.4 40.2-40.3-91.4zm-35.2 16.1c-9.7 9.7-25.4 9.7-35.1 0-9.7-9.7-9.7-25.4 0-35.1 9.7-9.7 25.4-9.7 35.1 0 9.8 9.7 9.8 25.4 0 35.1z" class="st1"/>
        <path id="Фигура_30_копия" d="M3065.4 2902.8s-18.2-35-69.7-35-69.7 35-69.7 35c54.2 22.3 68.7 52.4 69.7 54.4v.1-.1c1.4-2.2 30.8-54.4 69.7-54.4z" class="st1"/>
    </g>
</svg>
