<svg xmlns="http://www.w3.org/2000/svg" width="400" height="400" viewBox="2694 -2604 6000 6000">
    <style>
        .st1{fill:#fff}.st2{fill:#009ae1}.st3{fill:#006c9f}.st4{fill:#a7b9be}.st5{fill:#21b7ff}
    </style>
    <path d="M5580 3163a7734 7734 0 01-844-292 5361 5361 0 01-713-355 2504 2504 0 01-608-489 2784 2784 0 01-295-414c-78-133-142-271-192-411-90-250-133-506-125-739a1433 1433 0 01175-636l46-74 48 72c1 1 56 82 144 176 93 98 189 174 279 221 14-56 33-110 56-163l-3-17-2-17 7-14c23-50 67-104 98-139l-463-645h-9c-24 0-45-6-49-7l-9-3-7-5a396 396 0 01-108-144l-6-13 1-14c2-37 14-76 35-113a525 525 0 01150-155c29-21 132-92 243-92 22 0 43 3 63 8l14 4 10 9c8 8 79 75 101 149l3 9v9c0 7-2 31-12 56l463 646c43-18 108-43 163-49l16-2 15 7 5 3c10-74 26-137 36-174l6-23v-6c-3-16-20-58-34-93-45-109-120-292-147-519a1434 1434 0 01135-803l77-160 29 175c1 1 22 123 83 260 35 79 77 147 123 203s97 99 153 130c32-33 90-83 177-133 81-47 173-85 273-112 107-29 224-46 347-50v-1h124v1c123 5 240 21 347 51 99 27 191 64 273 111 87 50 145 100 177 133 55-31 107-74 153-130s88-124 123-203c61-137 82-259 82-260l30-175 77 160c48 103 85 208 109 313a1417 1417 0 014 628c46-23 95-43 146-60a1277 1277 0 01468-59c16-19 30-31 31-32l10-9 13-4c20-5 41-8 63-8 112 0 215 71 243 92a530 530 0 01150 155c21 37 33 75 35 113l1 14-5 13-13 24 24-11-11 100c-1 7-19 155-126 262l6 2a837 837 0 00329 32l111-13-56 97a619 619 0 01-268 228l24 37a1462 1462 0 01174 636c8 234-35 490-124 740-50 140-114 278-191 411-84 143-183 283-296 414a2511 2511 0 01-606 489 5359 5359 0 01-710 355 7698 7698 0 01-840 292l-15 4-14-4zM7633 69c21 49 39 101 52 153 237-123 421-394 423-397l9-13c-50 16-101 25-155 28l-83 3c-104 0-201-12-296-36l-47 66c31 34 75 88 99 138l7 15-2 16c-1 3-2 13-7 27z"/>
    <path d="M6863-2063c197 415 151 779 76 1032 127-85 334-180 632-180l95 3c22-28 44-48 44-48 16-5 32-7 48-7 101 0 199 73 213 84s151 96 159 224c0 0-37 84-90 121 0 0-15 5-32 5-11 0-22-2-31-9l-26 37h10c49 0 122-4 165-24 0 0-22 199-185 284a849 849 0 00457 74s-135 234-439 251c-28 2-55 2-80 2-130 0-233-19-319-43l-96 134s86 86 120 158c0 0-2 13-12 34 29 64 57 142 73 233 284-111 510-446 510-446s153 245 165 609c15 417-137 990-598 1525-616 718-2128 1119-2128 1119s-1519-401-2136-1118c-461-536-613-1109-599-1526 13-363 166-608 166-608s226 335 510 445c17-95 47-176 77-240-7-17-9-27-9-27 34-72 120-158 120-158l-513-714c-9 6-20 8-31 8-17 0-32-5-32-5-53-37-90-121-90-121 8-128 159-224 159-224 14-11 112-84 213-84 16 0 32 2 48 6 0 0 68 62 87 124 0 0-2 43-24 59l512 715s109-54 188-63c0 0 43 20 79 92-7-162 49-315 49-332 24-78-404-656-51-1401 0 0 87 505 428 652 0 0 229-305 840-309h11c610 4 840 309 840 309 341-147 427-652 427-652m272 1704l12-17-59-4 47 21m-274 46c8-18 16-34 25-47l-24 7-1 40m-162 472c153-206 249-332 249-332-8-12-74-42-94-80-19 144-41 192-41 192s-94 137-114 220m-2222-15c-26-84-110-205-110-205s-21-46-40-183c-24 34-81 60-88 71l238 317m-108-2579l-153 324a1621 1621 0 00-136 443 1479 1479 0 00-5 390c12 103 35 206 69 313 28 90 59 165 82 221l29 74-3 11c-7 28-19 73-29 126-37 5-82 16-132 35l-421-587c5-22 6-40 6-45v-18l-5-18c-12-39-36-81-71-124-23-28-44-47-46-49l-21-19-26-7c-25-7-51-10-78-10-58 0-120 15-183 47l-1-2-17 10c-34 19-60 37-74 47a592 592 0 00-167 173c-25 45-39 91-42 138l-2 27 11 25c1 3 13 29 33 60 28 47 60 83 94 107l15 11 18 5c5 2 22 7 44 9l421 587c-35 43-61 82-77 117l-14 30 4 32 1 5c-12 28-22 56-32 84a1473 1473 0 01-342-343l-97-144-92 147c-7 11-169 275-183 664-4 116 4 237 24 361 22 132 57 267 104 399 51 143 117 284 196 420 85 147 187 289 301 423 79 91 174 181 285 269 99 78 212 156 337 231 207 126 449 246 720 359a7825 7825 0 00851 295l29 7 29-7a7759 7759 0 00847-295c269-113 511-233 718-359 124-75 237-153 336-231 110-88 205-178 284-269 114-134 216-276 301-423 79-136 145-277 196-420 48-133 82-267 104-399 20-124 28-246 24-361-12-342-139-588-174-649a678 678 0 00236-223l112-193-222 25a731 731 0 01-231-10 535 535 0 0084-224l22-199-23 11c-7-33-19-66-37-98s-43-64-72-94c-43-44-84-72-95-79-14-10-39-28-72-46l-20-12-1 1c-63-30-124-46-182-46-27 0-53 4-78 10l-26 8-20 18-17 17-45-1a1334 1334 0 00-472 83 1528 1528 0 00-22-548c-25-109-63-218-113-323l-154-323-58 352c-1 1-21 118-80 249-33 73-72 137-115 188-31 38-65 70-101 95-36-33-88-72-156-111-86-50-182-89-287-117-95-26-198-43-306-50v-4h-235v4c-108 7-210 24-306 50-104 28-201 67-287 117-68 39-119 78-156 111-36-25-70-56-101-94-43-52-82-116-115-189-58-131-79-248-79-249l-60-353zM7692 65l3-17 4-32-14-29c-16-35-42-74-76-116a1255 1255 0 00357 25l17-1a1151 1151 0 01-264 242l-27-72z" class="st1"/>
    <path d="M3406-1200s-82 22-146 73c-71 56-125 142-125 142l75 84 78-51 75-67 96-42 25-6s-57-131-78-133zM4170-351l-337 182-176 182 84 130 295-228 212-122 29-60s-25-100-107-84z" class="st2"/>
    <path d="M3470-1056c-121-50-244 160-244 160l559 756 71-36 170-142-556-738z" class="st1"/>
    <path d="M3358-1077c-67 43-112 139-112 139l300-186-72-78-153 33c35 15 104 49 37 92zM4181-387l-36 74c34 84-126 210-112 205 61-26 272-165 272-165l-124-114zM3726-22l-60 43 86 119 57-76s-99 9-83-86z" class="st3"/>
    <path d="M5397 1513C4870 754 4183-143 4183-143l-157 28 16 18-154 149s1603 2183 1772 2501c0 0 68 106 137 92 0 0 201 9 237-116 0 0-265-479-637-1016z" class="st1"/>
    <path d="M5931 2282a8378 8378 0 00-543-765C4697 663 4191-156 4191-156s-137 32-182 109c0 0 1127 1344 1824 2476 72 38 219 66 219 66s23-43-121-213zM3272-975l-63 127 564 765 94-96z" class="st4"/>
    <path d="M6035 2318c-206-312-453-644-689-979C4782 540 4239-173 4239-173c11-16 121-63 97-118-38-104-96-131-96-131-78 9-187 63-187 63l-513-715c23-16 24-59 24-59-19-62-86-124-86-124-116-31-245 65-262 78s-151 96-159 224c0 0 37 84 90 121 0 0 41 13 64-4l512 715s-86 86-119 158c0 0 7 65 98 135 30 24 74 3 138-57 0 0 1033 1384 1784 2522 57 64 141 47 194 2-17-3-33-9-48-17-371-567-951-1398-1845-2562 0 0 62-72 105-103 0 0 40-28 116-56 0 0 1496 2023 1848 2616 25 39 1 76-41 100 172 122 192-187 82-297zM3228-918s-21 7-62-55c0 0 0-55 105-130 104-75 156-58 156-58 46 59 33 77 33 77-47-1-130 63-130 63s-88 58-102 103zm42 22s14-49 79-96v-1c66-46 117-43 117-43l523 729-97 70-98 70-524-729zm721 801S3821 22 3778 90c0 0-37 18-79-51 0 0 24-75 229-222s283-145 283-145c52 61 22 91 22 91-77 18-242 142-242 142z"/>
    <path d="M3944-391l-148 60 93-129-24-28-141 58 96-127-16-20-128 39 76-117-30-42-122 54 71-121-28-40-118 61 75-124-11-15-134 53 82-125-20-28-125 48 38-110-39 18-82 216 28 40 29-86 103-63-69 110-22 109 32 37 23-105 83-33-54 77-27 87 31 37 24-83 121-59-75 120-18 92 43 71 10-112 128-70-86 130-10 109 30 44 5-118 109-49-75 95-5 117 23 46 24-104 101-58-73 95-2 121 29 40 10-108 119-46-82 97-4 69 28-32 120-172z"/>
    <path d="M7927-1127c-64-51-146-73-146-73-20 2-77 132-77 132l24 7 96 42 75 67 78 51 75-85c0 1-54-85-125-141zM7354-169l-337-183c-82-16-107 85-107 85l29 59 213 123 294 228 84-130-176-182z" class="st2"/>
    <path d="M7717-1056l-556 738 171 142 70 36 559-757s-123-209-244-159z" class="st1"/>
    <path d="M7829-1077c-67-43 2-78 37-92l-153-33-72 77 300 186s-45-95-112-138zM7043-313l-37-74-124 114s211 139 273 164c13 6-147-120-112-204zM7461-22c16 95-83 85-83 85l57 77 86-119-60-43z" class="st3"/>
    <path d="M7145-98l16-18-156-28s-688 897-1214 1657c-372 537-637 1016-637 1016 35 125 237 116 237 116 69 14 137-92 137-92C5697 2235 7299 52 7299 52L7145-98z" class="st1"/>
    <path d="M6997-156s-506 819-1197 1673a8378 8378 0 00-543 765c-145 170-122 213-122 213s147-28 220-66C6051 1297 7178-48 7178-48c-45-76-181-108-181-108zM7916-975l-596 796 94 96 565-765z" class="st4"/>
    <path d="M7971-1179c-16-13-145-109-261-78 0 0-68 62-86 124 0 0 1 43 23 59l-512 715s-109-54-188-63c0 0-57 27-95 131-25 55 86 102 96 118 0 0-543 713-1107 1512-236 335-483 667-689 979-110 110-90 419 82 297-42-24-66-62-41-100 352-594 1848-2617 1848-2617 76 29 116 57 116 57 43 30 106 102 106 102a42189 42189 0 00-1845 2563c-15 8-32 14-49 17 53 44 137 61 194-2C6315 1496 7347 113 7347 113c65 60 108 81 139 57 90-71 98-135 98-135-34-72-120-158-120-158l513-715c23 17 63 4 63 4 53-37 90-121 90-121-8-128-159-224-159-224zM7488 39c-42 68-79 50-79 50-43-68-213-184-213-184s-165-124-242-142c0 0-30-30 22-91 0 0 78-2 283 145 206 147 229 222 229 222zm-94-206l-99-71-97-69 523-729s51-4 117 43c65 47 79 97 79 97l-523 729zm566-751c-15-45-103-103-103-103s-83-65-130-64c0 0-13-17 33-76 0 0 52-17 156 58 105 75 105 129 105 129-41 63-61 56-61 56z"/>
    <path d="M7797-1027l-39-17 37 110-125-48-20 27 82 126-134-53-11 15 76 124-118-61-29 40 71 121-122-54-30 42 76 117-128-39-16 20 96 127-141-58-24 28 93 129-148-60-16 26 121 172 27 32-4-69-82-97 119 46 11 108 28-40-2-122-73-94 102 58 23 104 23-46-5-118-74-94 108 49 5 118 31-45-10-108-86-130 127 70 10 112 43-71-18-92-75-120 121 58 24 84 32-37-27-87-55-77 84 33 22 105 32-38-22-108-69-110 104 63 28 86 28-40z"/>
    <path d="M7891 791l-503 151-70-220-816 287-1040 1127s497 42 521 43 1648-433 1662-458 382-535 246-930z" class="st1"/>
    <path d="M4674 1009l-816-287-71 220-502-151c-137 395 232 905 246 930s1637 458 1661 458l522-43-1040-1127z" class="st1"/>
    <path d="M8055-430l-184-109 123-145-18-63-1208 6 20 309 438 2s797 301 994 63c0 0-153-55-165-63z" class="st2"/>
    <path d="M7962-681l-919-80-294-21 49 117s207-30 374 71c167 100 321 110 515 114 0 0-59-35-98-76 0 0 243 17 373-125z" class="st3"/>
    <path d="M3773 922l-251-3c248 846 1131 976 1131 976-702-259-880-973-880-973z" class="st4"/>
    <path d="M4322-1692c-209 742 164 893 164 893l82-387-246-506zM6861-1710l-403 459 226 505s373-531 177-964zM7631-975l168-174c-552-79-1029 322-1003 331 130 48 1021 35 1021 35l-186-192z" class="st2"/>
    <path d="M7509-900l37-26c-230-54-469 63-469 63l-178 45s187 47 252 44c66-3 599-42 599-42-96-87-241-84-241-84zM4327-1663s60 173 135 305c76 118 37 212 25 258-20 77-29 179 12 285l300-434s-310-472-472-414zM6871-1664c-162-57-472 414-472 414l300 435c40-106 32-208 11-286-12-46-51-139 25-258 75-131 136-305 136-305z" class="st3"/>
    <path d="M5449 814l-800-425c-67 498 541 1218 541 1218l235 5s144-198 151-434c4-126-127-364-127-364z" class="st1"/>
    <path d="M6597 374c-5 12-470 130-590 147s-131-11-131-11l-467 68-558-128c33 185 456 232 578 430 78 127 28 345 0 507-40 240-185 163-185 163l-14 6s481 418 495 392 106-142 105-173c0-32 254-635 260-652s555-781 555-781-43 20-48 32zM4426 619l-623-304-161 289-526-237c-232 161 136 598 136 598l6-197 368 132 186-6V768l48-30 735 232-169-351zM8114 367l-526 237-161-289-622 304-170 351 735-232 49 30v126l185 6 369-132 5 197s368-437 136-598z" class="st4"/>
    <path d="M5182 308l-343-112c-16 201 281 335 297 335s294-112 294-112l-248-111zM5768 399c112 223 431 92 447 89 16-2 149-294 149-294l-596 205zM4342 349s-89 102-219 53c-216-82-498-290-498-290s-50 593 167 713c0 0-120-216 5-399 0 0 272 306 642 348l-97-425zM3124 412s239 274 506 293l-46-316-543-322s-85 591 140 787c0 0-139-249-57-442z" class="st1"/>
    <path d="M4531 911l-317-9-9 28s240 752 1237 1158l20-143-931-1034zM6984 902l-317 9-931 1034 19 143c998-406 1238-1158 1238-1158l-9-28zM7425 922s-178 714-880 973c0 0 883-130 1132-976l-252 3z" class="st4"/>
    <path d="M7493 120s-81 143-277 238c-184 90-373-8-373-8l-84 424c370-42 642-348 642-348 125 183 5 399 5 399 217-120 87-705 87-705zM8157 67l-542 322-47 317c267-20 506-294 506-294 82 193-57 442-57 442 225-196 140-787 140-787zM5525-1601s-312 7-519 149c-227 156-351 448-351 448l-55 310s235 185 527 247c352 75 772 30 772 30l259-925c1 0-405-305-633-259z" class="st1"/>
    <path d="M5924-1627l-480 61c200 53 225 254 214 481-13 265-346 424-346 424 233 15 321-36 321-36-300 232-875 36-875 36l56 316 1514-137 3-577-407-568z" class="st4"/>
    <path d="M4595-619s-241 408 15 576c0 0 464 180 943 190C6058 156 6579-5 6579-5l130-603S5454-79 4595-619z" class="st2"/>
    <path d="M4682-618l-157-11s-87 550 361 616c0 0-221-162-204-605zM6580-587S6448 10 6021 87c0 0 674-80 704-248s-17-547-145-426z" class="st3"/>
    <path d="M5843-504c-320 646-911 713-911 713 901-64 1249-732 1249-732l-338 19z" class="st5"/>
    <path d="M5227 158zm944-626a1277 1277 0 01-944 626c702-56 1033-631 1033-631l-89 5z" class="st5"/>
    <path d="M6858-283c3-23 4-47 4-70 182-57 415-14 523 31 124 52 293 122 574 106 304-17 439-251 439-251-259 30-457-74-457-74 163-84 185-284 185-284-69 32-217 22-217 22-91-165-186-187-186-187 69-72 238-172 238-172-515-124-846 13-1022 131 76-253 121-617-76-1032 0 0-86 505-427 652 0 0-230-305-840-308h-11c-610 3-840 308-840 308-341-147-428-652-428-652-353 745 75 1323 51 1401 0 19-67 201-45 379 20 167 44 222 44 222s130 188 117 257c-11 66-136 83-136 83s-129 0-182 76c-268-103-448-467-448-466 0 0-136 156-183 413-284-110-509-445-509-445s-154 245-166 608c-14 417 138 990 598 1526 617 718 2136 1118 2136 1118s1512-400 2129-1118c460-536 612-1109 598-1526-13-363-166-608-166-608s-225 335-510 445a926 926 0 00-183-413c0-1-179 363-447 466-54-76-182-76-182-76s-125-17-137-82c-12-70 117-258 117-258s25-55 45-222zm838-817s-107 47-178 138c0 0 132 34 218 135-159-83-293-50-293-50l36-26 16-3s-14-2-44 1c-180 0-376 69-376 69-63-3-122 5-169 16 77-59 390-274 790-280zM6606-293c57-133 21-273 21-273 99 159-45 410-45 410-91 74-227 122-227 122 56-22 199-137 251-259zm-288 512s-75 387-495 217c0 0 127-1 226-112 0 0 56-28 123-53l146-53zM5593 72c-36 1-625 10-944-230 0 0-110-244-37-395 0 0 350 278 984 278 322-9 555-64 717-123-173 422-720 470-720 470zm-231 364c-420 170-495-218-495-218l146 53c67 25 123 53 123 53a330 330 0 00226 112zm-225-1892c234-101 495-91 572-79 153 25 230 122 235 300 6 228-202 353-202 353 189-36 233-169 233-169-87 651-551 587-551 587-653-93-755-345-755-345a756 756 0 01468-647zm-795-192a901 901 0 00328 389c-162 152-182 417-182 417-279-502-146-806-146-806zM3776 265s151 237 512 378c0 0 2-108 44-153 0 0 30 288 113 408 0 0-451-68-655-345 0 0-53 102 3 265 0 0-179-234-17-553zm-592 585s-219-301-104-622c0 0 237 287 494 330 0 0-8 175 77 304 0 0-290-77-468-301 0 0-58 121 1 289zm128-24s179 142 389 166c0 0 228 670 948 899 0 0-1040 63-1337-1065zm560-48s236 176 615 232c0 0 370 785 944 1068 0 0-1217-217-1559-1300zm1720 519l1 485-6-4v0c-53-31-419-255-625-541-275-382-274-817-274-817 301 206 577 278 743 302 19-59 85-130 162-130s142 70 161 130c167-26 441-98 739-302 0 0-177 165-406 285-75 39-155 72-230 100-167 64-238 279-265 492zm2032-739c257-43 494-330 494-330 115 321-103 622-103 622 58-168 1-289 1-289a995 995 0 01-468 301c85-129 76-304 76-304zm262 268c-296 1128-1337 1065-1337 1065 721-229 949-899 949-899a880 880 0 00388-166zM6866 490c42 44 45 153 45 153 360-141 511-378 511-378 163 319-17 553-17 553 56-163 3-265 3-265-204 277-655 345-655 345 83-120 113-408 113-408zm-155 520c380-56 616-232 616-232-343 1083-1560 1300-1560 1300 574-283 944-1068 944-1068zm-184-2269s211-125 328-389c0 0 134 304-145 806 0 0-21-265-183-417zm677 612c221 117 338 187 521 171 0 0-166-10-359-159 0 0 224 94 584-35 0 0-90 103-195 115 0 0 147 187 398 172 0 0-398 126-672-20s-586-83-667-68l-10-242s180-52 400 66z"/>
    <path d="M5717 2572l97-227-227 98-215-91 92 215-99 226 227-96 223 98-98-223zm-85 39a60 60 0 11-86-85 60 60 0 0186 85zM5129 2454l45-105-105 45-99-42 42 99-45 104 105-44 102 45-45-103zm-40 18a28 28 0 11-39-40 28 28 0 0139 40zM6153 2454l45-105-105 45-99-42 42 99-45 104 105-44 103 45-46-103zm-39 18a28 28 0 11-40-40 28 28 0 0140 40zM5671 709s-20-39-78-39-78 39-78 39c61 25 77 59 78 61v1c2-3 35-62 78-62z" class="st1"/>
</svg>
