<svg xmlns="http://www.w3.org/2000/svg" viewBox="0 0 1080 1080">
	<path fill="#fff" d="M182 835a106 106 0 00-13-19l-11-13-12-12a37 37 0 00-13-5 17 17 0 00-15 3c-3 2-5 5-6 8l-1 9 5 11a313 313 0 0023 37v5l-4-2a75 75 0 01-14-19v-6l-19-25c-2 2-3 5-4 10-1 4-1 10 1 16l6 13a139 139 0 0030 35l11 5c5 1 9 0 13-2 7-4 10-11 7-20l-7-14-11-19h-1l-7-13v-4h3l5 3a78 78 0 0115 22c1 3 1 5-1 7l18 25 5-5 2-6-1-13-4-12zm-70-114l-10-25-42 17-14-34-18 7 36 92 19-7-14-34 43-16zM78 603l-17 2-3-30v-8l4-4 5-1h4l3-2-3-31c0 2-2 3-4 4l-12 3c-6 0-9 4-11 10-4-7-10-10-18-9l-5 1-7 4c-4 5-6 13-5 24l7 70 65-6-3-27zm-46 5l-3-35 1-8 3-2 2 1 2 2 1 6 4 35-10 1zm58-202l-19-3-12 65-6-1 11-61-14-3-12 61-6-1 12-65-19-3-16 91 64 12 17-92zm22-56l-5-7 17-36h10l14-29-76 6-15 30 41 65 14-29zm-30-42l21-1-9 18-12-17zm162-137l-47-45-26 27 16 43-44-14-26 27 47 46 19-19-29-28 3 2 39 12 17-18-14-38-2-3 29 27 18-19zm49-53l-4-6 55-29-6-13-55 30-3-6 58-31-9-17-82 44 31 58 82-45-9-17-58 32zm195-53l-4-11c-2-6-6-9-12-10 6-5 9-11 7-19l-2-5-5-6c-5-4-13-5-23-3l-69 15 14 64 25-5-3-17 29-7 8-1 4 4 2 4 1 5 2 3 30-7-4-4zm-34-28l-3 3-5 2-34 7-2-10 34-7h8l2 3v2zm185 33l39 10 2 9 31 8-22-73-33-8-54 54 31 7 6-7zm29-31l5 20-19-5 14-15zm125 103l28 17 33-57-23-13-19 33-14-53-28-16-33 56 23 14 19-34 14 53zm103 90v-1c3 4 7 7 11 9a32 32 0 0038-4 32 32 0 007-37c-2-4-4-8-8-12l-43-47-48 44 43 48zm9-59l23 26 4 7c0 4-2 7-5 11-4 3-7 4-11 3l-7-4-23-26 19-17zm103 241c2 8 6 14 11 18 4 3 8 4 13 4a38 38 0 0018-5c4-3 6-6 8-11 2-6 2-13-1-22l-20-64-63 19 8 25 14-4 12 40zm18-49l10 33v9l-3 2h-4c-1-1-3-3-4-7l-10-33 11-4zm49 183l-1-70-66 1 1 26h17l1 30-1 8c0 2-2 3-4 3l-5 1h-4c-2 0-3 1-3 2v30l5-3 12-2c6 0 10-3 12-9 3 7 9 10 17 10l6-1 6-3c5-5 7-12 7-23zm-21-1l-3 1h-2l-2-3-1-6v-34l9-1 1 35-2 8zm-15 69c-12-4-23-1-31 7-6 6-10 14-14 25a251 251 0 00-6 23c-3 11-3 20-1 28 3 11 11 19 23 22 12 4 23 1 31-7 6-6 10-15 14-25a251 251 0 006-23c3-11 3-20 1-28-3-12-11-19-23-22zm1 57a98 98 0 01-5 13l-5 6-4 2-5 1-3-1-8-4-3-4c-1-4 0-12 2-22l2-5 3-8 5-6 4-3h4l4 1 8 4 3 4c1 4 0 12-2 22zM908 828l11 9-27 31c-6 7-9 13-10 19 0 5 1 10 3 13a39 39 0 0014 13c5 2 9 2 14 1 6-1 12-5 18-12l44-51-49-43-18 20zm34 30l-22 26c-3 3-5 5-7 5l-4-2-2-3c0-2 1-4 4-7l23-27 8 8zm-180 94l11 16 52-34 25 38 22-15-36-54-74 49zm-57 33l-38 12-7-7-31 10 58 50 32-10 18-75-30 10-2 10zm-8 42l-15-15 19-6-4 21zm-119-24l-26 2 1 21-45 46 36-2 23-25 25 23 36-2-49-42-1-21zm-196-4l65 16-1 6-61-14-4 14 61 14-1 6-64-15-5 18 90 22 15-64-90-22-5 19zm-61-29l-26-15-6-5c-2-1-2-3-1-5l2-4 2-4v-4l-26-15v6l-5 11c-2 5-2 10 2 15-7 0-13 3-17 9l-2 6-1 7c2 6 7 12 16 18l62 35 32-57-23-13-9 15zm-14 25l-30-17c-3-2-6-4-6-6v-3l2-2h3l6 2 30 18-5 8z"/>
</svg>
