<svg xmlns="http://www.w3.org/2000/svg" width="514" height="360"  stroke="none" stroke-linecap="round" stroke-linejoin="round" fill="#fff" fill-rule="nonzero"><path d="M501.9531 56.5937c-5.9023-21.9336-23.1953-39.2226-45.1249-45.1289C416.7617.5 256.4961.5 256.4961.5S96.2343.5 56.168 11.0469C34.6602 16.9492 16.9453 34.664 11.043 56.5937.5 96.6562.5 179.7422.5 179.7422s0 83.5039 10.543 123.1484c5.9062 21.9297 23.1953 39.2227 45.1288 45.129C96.6562 358.9844 256.5 358.9844 256.5 358.9844s160.2617 0 200.3282-10.5469c21.9335-5.9024 39.2226-23.1953 45.1288-45.125C512.5 263.2461 512.5 180.164 512.5 180.164s.4218-83.5078-10.5469-123.5703zm0 0" fill="red"/><path d="M205.4687 256.5l133.2695-76.7578-133.2695-76.7578zm0 0"/></svg>
