<svg xmlns="http://www.w3.org/2000/svg" width="142" height="106">
    <path fill="#fff" d="M122 14C110 5 89 2 89 2c-2 0-3 1-3 3l27 12a3 3 0 11-3 3 78 78 0 00-78 0c-2 0-3-2-3-3L56 5c0-2-2-3-3-3S32 5 20 14C7 34 1 58 2 83c9 18 33 21 39 21a3 3 0 003 0l3-9-21-9a3 3 0 01-1-6 3 3 0 014-1c1 1 15 13 42 13s42-12 42-12a3 3 0 013 0 3 3 0 010 6l-21 9 3 9a3 3 0 003 0c6 0 30-3 39-21 0-30-12-63-18-69zM53 71c-6 0-12-6-12-12s6-12 12-12 9 6 9 12-6 12-9 12zm39 0c-6 0-12-6-12-12s6-12 12-12 9 6 9 12-6 12-9 12z"/>
</svg>
