<svg xmlns="http://www.w3.org/2000/svg" viewBox="0 0 512 512">
	<path d="M507 370c-1-2-9-20-50-58-43-40-38-34 14-103 32-41 44-67 40-78-4-10-27-8-27-8l-77 1s-5-1-10 2c-4 2-6 8-6 8s-13 32-29 60c-34 58-48 61-53 57-13-8-10-33-10-51 0-57 8-80-17-86-8-2-14-4-36-4-27 0-51 0-64 7-8 4-15 13-11 14 5 1 17 3 23 11 8 11 7 35 7 35s5 67-10 75c-11 6-25-6-56-59-15-27-27-57-27-57s-2-5-6-8c-5-4-12-5-12-5H17s-11 1-15 5c-4 5-1 13-1 13s58 134 122 202c60 62 128 58 128 58h30s9-1 14-6c4-5 4-14 4-14s0-41 19-47c18-6 43 40 68 57 20 14 34 11 34 11l69-1s35-2 18-31z" fill="#fff"/>
</svg>
